<svg width="180" height="34" viewBox="0 0 180 34" fill="none" xmlns="http://www.w3.org/2000/svg">
<mask id="mask0_72_1263" style="mask-type:luminance" maskUnits="userSpaceOnUse" x="0" y="0" width="180" height="34">
<path d="M180 0H0V33.1579H180V0Z" fill="white"/>
</mask>
<g mask="url(#mask0_72_1263)">
<path d="M56.428 33.0586C54.7833 33.0586 53.3123 32.7455 52.0152 32.1189C50.7411 31.5159 49.7102 30.6577 48.9227 29.5443L50.5208 27.9437C51.1695 28.8252 51.992 29.5095 52.988 29.9966C53.9842 30.4837 55.1539 30.7273 56.4977 30.7273C58.3508 30.7273 59.8217 30.2286 60.9105 29.2311C62.0223 28.2337 62.5786 26.8767 62.5786 25.1602V20.1509L63.0648 16.4279L62.5786 12.7397V8.52958H65.0108V25.1602C65.0108 26.7375 64.6517 28.1177 63.9336 29.3007C63.2155 30.4837 62.2077 31.4001 60.9105 32.0495C59.6364 32.722 58.1423 33.0586 56.428 33.0586ZM56.6017 24.7089C55.0961 24.7089 53.7408 24.3494 52.5364 23.6303C51.3317 22.9112 50.382 21.9254 49.687 20.6728C48.992 19.4202 48.6445 18.0052 48.6445 16.4279C48.6445 14.8505 48.9805 13.4472 49.6523 12.2178C50.3473 10.9652 51.297 9.97936 52.5017 9.26027C53.7061 8.54118 55.0614 8.18164 56.567 8.18164C57.8411 8.18164 58.9761 8.4252 59.9723 8.91233C60.9917 9.39944 61.8023 10.0953 62.4048 11C63.0302 11.8814 63.4123 12.9253 63.5514 14.1315V18.7591C63.4123 19.9421 63.0302 20.9859 62.4048 21.8906C61.7792 22.772 60.9686 23.4679 59.9723 23.9782C58.9761 24.4654 57.8527 24.7089 56.6017 24.7089ZM57.0536 22.3777C58.1886 22.3777 59.1733 22.1341 60.007 21.647C60.8642 21.1599 61.5245 20.4756 61.9877 19.5942C62.4742 18.6895 62.7173 17.6341 62.7173 16.4279C62.7173 15.2449 62.4742 14.2127 61.9877 13.3312C61.5245 12.4498 60.8642 11.7538 60.007 11.2435C59.1498 10.7332 58.1539 10.4781 57.0189 10.4781C55.8836 10.4781 54.8645 10.7332 53.9611 11.2435C53.0808 11.7538 52.3858 12.4498 51.8761 13.3312C51.3895 14.2127 51.1464 15.2449 51.1464 16.4279C51.1464 17.5877 51.4011 18.6199 51.9108 19.5245C52.4205 20.4292 53.1155 21.1367 53.9958 21.647C54.8761 22.1341 55.8952 22.3777 57.0536 22.3777Z" fill="white"/>
<path d="M68.8047 24.8829V8.52958H71.2372V24.8829H68.8047ZM71.2372 15.3493L70.2294 14.8969C70.2294 12.8325 70.7275 11.1971 71.7234 9.99094C72.7428 8.78474 74.1328 8.18164 75.8931 8.18164C76.7041 8.18164 77.4453 8.33242 78.1172 8.63396C78.7887 8.91233 79.4144 9.36466 79.9934 9.99094L78.395 11.6959C78.0012 11.2551 77.5612 10.942 77.0747 10.7564C76.6112 10.5709 76.0784 10.4781 75.4762 10.4781C74.2253 10.4781 73.2059 10.8956 72.4184 11.7307C71.6309 12.5425 71.2372 13.7487 71.2372 15.3493Z" fill="white"/>
<path d="M88.4339 25.2308C86.7889 25.2308 85.318 24.8597 84.0208 24.1174C82.7236 23.3751 81.6927 22.3545 80.9283 21.0555C80.187 19.7565 79.8164 18.2952 79.8164 16.6714C79.8164 15.0709 80.187 13.6327 80.9283 12.3569C81.6695 11.058 82.6773 10.0373 83.9514 9.29506C85.2255 8.55279 86.6502 8.18164 88.2252 8.18164C89.708 8.18164 91.0167 8.51797 92.1517 9.19067C93.3102 9.86337 94.2136 10.8028 94.862 12.009C95.5339 13.192 95.8698 14.5606 95.8698 16.1147C95.8698 16.3003 95.8583 16.5207 95.8352 16.7758C95.812 17.0078 95.7655 17.2861 95.6961 17.6109H81.5536V15.5232H94.3758L93.507 16.2887C93.5302 15.0825 93.3217 14.0503 92.8814 13.192C92.4645 12.3105 91.8505 11.6379 91.0398 11.174C90.2523 10.6868 89.2908 10.4433 88.1558 10.4433C86.9742 10.4433 85.9436 10.6984 85.0633 11.2087C84.183 11.7191 83.488 12.4381 82.9783 13.366C82.492 14.2707 82.2486 15.3493 82.2486 16.6018C82.2486 17.8545 82.5036 18.9563 83.013 19.9073C83.5458 20.8583 84.2755 21.6006 85.2023 22.1341C86.152 22.6676 87.2408 22.9344 88.4686 22.9344C89.4645 22.9344 90.3795 22.7604 91.2136 22.4125C92.0477 22.0414 92.7542 21.4962 93.3333 20.7772L94.8967 22.3777C94.1323 23.2823 93.1827 23.9898 92.0477 24.5001C90.9355 24.9872 89.7311 25.2308 88.4339 25.2308Z" fill="white"/>
<path d="M106.02 25.2308C104.375 25.2308 102.904 24.8597 101.607 24.1174C100.31 23.3751 99.2789 22.3545 98.5145 21.0555C97.773 19.7565 97.4023 18.2952 97.4023 16.6714C97.4023 15.0709 97.773 13.6327 98.5145 12.3569C99.2558 11.058 100.263 10.0373 101.537 9.29506C102.811 8.55279 104.236 8.18164 105.811 8.18164C107.294 8.18164 108.603 8.51797 109.738 9.19067C110.896 9.86337 111.8 10.8028 112.448 12.009C113.12 13.192 113.456 14.5606 113.456 16.1147C113.456 16.3003 113.445 16.5207 113.421 16.7758C113.398 17.0078 113.352 17.2861 113.282 17.6109H99.1398V15.5232H111.962L111.093 16.2887C111.116 15.0825 110.908 14.0503 110.468 13.192C110.051 12.3105 109.437 11.6379 108.626 11.174C107.838 10.6868 106.877 10.4433 105.742 10.4433C104.56 10.4433 103.53 10.6984 102.65 11.2087C101.769 11.7191 101.074 12.4381 100.565 13.366C100.078 14.2707 99.8348 15.3493 99.8348 16.6018C99.8348 17.8545 100.09 18.9563 100.599 19.9073C101.132 20.8583 101.862 21.6006 102.788 22.1341C103.738 22.6676 104.827 22.9344 106.055 22.9344C107.051 22.9344 107.966 22.7604 108.8 22.4125C109.634 22.0414 110.34 21.4962 110.92 20.7772L112.483 22.3777C111.719 23.2823 110.769 23.9898 109.634 24.5001C108.522 24.9872 107.317 25.2308 106.02 25.2308Z" fill="white"/>
<path d="M127.954 24.8829V15.2797C127.954 13.8415 127.526 12.6817 126.668 11.8002C125.834 10.8956 124.723 10.4433 123.333 10.4433C122.383 10.4433 121.549 10.652 120.831 11.0696C120.113 11.4871 119.545 12.0554 119.128 12.7745C118.711 13.4936 118.503 14.317 118.503 15.2449L117.391 14.6186C117.391 13.3892 117.68 12.2874 118.259 11.3131C118.838 10.3389 119.615 9.57343 120.588 9.01672C121.584 8.46001 122.719 8.18164 123.993 8.18164C125.244 8.18164 126.356 8.48319 127.329 9.08629C128.302 9.68939 129.054 10.5013 129.587 11.5219C130.143 12.5425 130.421 13.6559 130.421 14.8621V24.8829H127.954ZM116.07 24.8829V8.52958H118.503V24.8829H116.07Z" fill="white"/>
<path d="M136.053 24.8825V6.02336C136.053 4.95633 136.285 4.0169 136.748 3.20503C137.212 2.36997 137.849 1.72048 138.66 1.25656C139.493 0.769436 140.455 0.525879 141.544 0.525879C142.354 0.525879 143.072 0.665054 143.698 0.943409C144.347 1.22176 144.937 1.6161 145.47 2.12641L143.837 3.76174C143.513 3.43698 143.154 3.20503 142.76 3.06586C142.389 2.90348 141.972 2.8223 141.509 2.8223C140.559 2.8223 139.818 3.12385 139.285 3.72696C138.775 4.30685 138.521 5.09553 138.521 6.09296V24.8825H136.053ZM131.953 10.7213V8.52922H146.999V10.7213H131.953ZM145.644 24.8825V8.52922H148.111V24.8825H145.644ZM146.86 7.13678C146.373 7.13678 145.968 6.9744 145.644 6.64967C145.343 6.30173 145.192 5.8958 145.192 5.43187C145.192 4.94476 145.343 4.53883 145.644 4.21407C145.968 3.88931 146.373 3.72696 146.86 3.72696C147.347 3.72696 147.752 3.88931 148.076 4.21407C148.401 4.53883 148.563 4.94476 148.563 5.43187C148.563 5.8958 148.401 6.30173 148.076 6.64967C147.752 6.9744 147.347 7.13678 146.86 7.13678Z" fill="white"/>
<path d="M156.928 25.2308C156.048 25.2308 155.202 25.1148 154.391 24.8829C153.58 24.6277 152.839 24.2798 152.168 23.839C151.519 23.3983 150.951 22.8764 150.465 22.2733L152.029 20.6728C152.677 21.4614 153.407 22.0529 154.218 22.4473C155.052 22.8184 155.978 23.004 156.997 23.004C158.086 23.004 158.932 22.7952 159.534 22.3777C160.16 21.9602 160.472 21.3803 160.472 20.638C160.472 19.9421 160.252 19.397 159.812 19.0027C159.372 18.6083 158.805 18.2952 158.11 18.0632C157.438 17.8312 156.72 17.6109 155.955 17.4021C155.19 17.1702 154.461 16.8918 153.766 16.5671C153.071 16.2191 152.504 15.7436 152.063 15.1405C151.646 14.5374 151.438 13.7487 151.438 12.7745C151.438 11.8466 151.658 11.0464 152.098 10.3737C152.561 9.67778 153.21 9.14428 154.044 8.77313C154.901 8.3788 155.909 8.18164 157.067 8.18164C158.295 8.18164 159.407 8.40202 160.403 8.84273C161.399 9.28345 162.198 9.93294 162.8 10.7912L161.237 12.3569C160.75 11.7307 160.136 11.2551 159.395 10.9304C158.677 10.5825 157.866 10.4085 156.963 10.4085C155.92 10.4085 155.121 10.6172 154.565 11.0348C154.032 11.4291 153.766 11.951 153.766 12.6005C153.766 13.2268 153.986 13.7255 154.426 14.0967C154.866 14.4446 155.422 14.7345 156.094 14.9665C156.789 15.1753 157.519 15.3956 158.283 15.6276C159.048 15.8364 159.777 16.1263 160.472 16.4975C161.167 16.8454 161.723 17.3325 162.14 17.9588C162.58 18.5619 162.8 19.3854 162.8 20.4292C162.8 21.8906 162.268 23.062 161.202 23.9434C160.16 24.8017 158.735 25.2308 156.928 25.2308Z" fill="white"/>
<path d="M177.427 24.8828V15.2797C177.427 13.8415 176.998 12.6817 176.141 11.8002C175.307 10.8956 174.195 10.4432 172.805 10.4432C171.855 10.4432 171.022 10.652 170.304 11.0695C169.585 11.4871 169.018 12.0554 168.601 12.7745C168.184 13.4935 167.975 14.317 167.975 15.2448L166.864 14.6186C166.864 13.3892 167.153 12.2873 167.732 11.3131C168.311 10.3389 169.087 9.5734 170.06 9.0167C171.056 8.45999 172.191 8.18162 173.465 8.18162C174.716 8.18162 175.828 8.47156 176.801 9.05148C177.774 9.60819 178.527 10.3852 179.06 11.3827C179.616 12.3801 179.894 13.5399 179.894 14.8621V24.8828H177.427ZM165.543 24.8828V0.248535H167.975V24.8828H165.543Z" fill="white"/>
<path d="M0.105469 16.3732C0.105469 25.2786 7.31808 32.5697 16.2153 32.5697H23.4586C24.4715 32.5697 25.1752 31.5602 24.8257 30.6086L24.7824 30.4906C23.2308 26.2652 26.3549 21.784 30.8522 21.784C31.6458 21.784 32.2893 21.1399 32.2893 20.3454V13.1039C32.2893 11.941 31.3474 10.9983 30.1858 10.9983H23.6171C22.4554 10.9983 21.5136 11.941 21.5136 13.1039V16.3732C21.5136 19.2757 19.1508 21.784 16.2153 21.784C13.2797 21.784 10.8095 19.3474 10.8095 16.3732C10.8095 13.8291 12.8501 11.07 16.2153 11.07H19.4817C20.6434 11.07 21.5852 10.1273 21.5852 8.96439V2.35414C21.5852 1.19125 20.6434 0.248535 19.4817 0.248535H16.2153C7.31808 0.248535 0.105469 7.46782 0.105469 16.3732Z" fill="#00E0CA"/>
<path d="M34.375 28.921C34.375 30.9078 32.7659 32.5184 30.7812 32.5184C28.7965 32.5184 27.1875 30.9078 27.1875 28.921C27.1875 26.9343 28.7965 25.3237 30.7812 25.3237C32.7659 25.3237 34.375 26.9343 34.375 28.921Z" fill="#00E0CA"/>
</g>
</svg>
